Coordinates
version=1
nRows=32
nColumns=22
inDegrees=yes

Units are S.I. units (second, meters, Newtons, ...)
If the header above contains a line with 'inDegrees', this indicates whether rotational values are in degrees (yes) or radians (no).

endheader
time	pelvis_tilt	pelvis_list	pelvis_rotation	pelvis_tx	pelvis_ty	pelvis_tz	hip_flexion_r	hip_adduction_r	hip_rotation_r	knee_angle_r	ankle_angle_r	subtalar_angle_r	hip_flexion_l	hip_adduction_l	hip_rotation_l	knee_angle_l	ankle_angle_l	subtalar_angle_l	lumbar_extension	lumbar_bending	lumbar_rotation
      1.99000000	      6.35636468	     -6.42351387	     62.30470939	      0.99056283	      0.99576672	      0.53392077	     19.82396145	      6.35524878	      3.24029064	    -22.02215849	      4.28148957	     12.48470740	      5.96834959	     -7.65846276	     -3.18234914	    -60.79075708	     -5.83684503	     -1.82884912	      0.49478013	      5.18023571	     -7.71410154
      2.00000000	      6.40066000	     -6.27149576	     63.21759532	      0.99418846	      0.99730642	      0.52560578	     19.00144454	      6.13422458	      2.75127370	    -21.87028195	      4.72416420	     12.27809377	      7.65793927	     -7.71245929	     -2.91130920	    -62.63166314	     -4.80163282	     -3.28614768	      0.26132630	      5.02621257	     -7.49659337
      2.01000000	      6.43025135	     -6.08865235	     64.06434740	      0.99764169	      0.99887345	      0.51736151	     18.12816357	      5.90994021	      2.30220306	    -21.65357353	      5.12835873	     12.09994051	      9.25344983	     -7.70503137	     -2.76187659	    -64.16803209	     -3.71183147	     -4.68579431	      0.00098973	      4.85755459	     -7.18686941
      2.02000000	      6.45562680	     -5.88090069	     64.83387977	      1.00097881	      1.00044177	      0.50921405	     17.21011387	      5.70354235	      1.91726004	    -21.38204518	      5.48823568	     11.92627358	     10.74986565	     -7.67194153	     -2.75753821	    -65.40316011	     -2.58864009	     -5.93019386	     -0.28710765	      4.68392376	     -6.79901258
      2.03000000	      6.48745721	     -5.65731556	     65.51992025	      1.00426221	      1.00198030	      0.50111368	     16.25563023	      5.52504597	      1.54428770	    -21.06854846	      5.81220933	     11.74603258	     12.14039165	     -7.65059927	     -2.91916242	    -66.33370373	     -1.44589715	     -6.92842813	     -0.58660330	      4.51457399	     -6.31647247
      2.04000000	      6.49998078	     -5.42446282	     66.09413768	      1.00752814	      1.00344836	      0.49312742	     15.29346610	      5.36986796	      1.29479420	    -20.73264111	      6.09449074	     11.52550335	     13.43795161	     -7.63094837	     -3.26675976	    -66.95885395	     -0.32219014	     -7.77570706	     -0.89194343	      4.32650268	     -5.73373051
      2.05000000	      6.49343818	     -5.19593848	     66.59741819	      1.01074977	      1.00480711	      0.48516191	     14.33084651	      5.22182094	      1.09106933	    -20.36892320	      6.34451750	     11.27896041	     14.66432319	     -7.61568520	     -3.75067720	    -67.29398459	      0.75276420	     -8.39550704	     -1.17303868	      4.12404718	     -5.11164591
      2.06000000	      6.46845119	     -4.98108060	     67.05077773	      1.01388805	      1.00601635	      0.47722632	     13.39410391	      5.07696550	      0.90753231	    -20.00776792	      6.57647062	     11.00967436	     15.83862088	     -7.60152757	     -4.33567894	    -67.35309412	      1.75262012	     -8.82665216	     -1.42748462	      3.91177956	     -4.46021425
      2.07000000	      6.41392043	     -4.78758974	     67.48137997	      1.01691012	      1.00705460	      0.46926934	     12.48940325	      4.91727257	      0.72715258	    -19.64299151	      6.78832795	     10.71901247	     16.97775189	     -7.57458155	     -4.99192464	    -67.14467657	      2.64920296	     -9.11533867	     -1.63653060	      3.68314226	     -3.82816014
      2.08000000	      6.33562221	     -4.61631289	     67.89728887	      1.01980137	      1.00790064	      0.46131048	     11.63768985	      4.74369460	      0.51369104	    -19.31313620	      7.01796338	     10.43306414	     18.08372919	     -7.54074383	     -5.71271921	    -66.68194794	      3.45044915	     -9.27045506	     -1.81161976	      3.44343755	     -3.22368580
      2.09000000	      6.23278316	     -4.46206599	     68.33179685	      1.02250656	      1.00856194	      0.45330782	     10.82206722	      4.54529502	      0.26391364	    -19.00142579	      7.25470878	     10.13304380	     19.15989579	     -7.47057500	     -6.43341578	    -65.97700406	      4.14396054	     -9.31687675	     -1.95557081	      3.18900419	     -2.65513297
      2.10000000	      6.10935868	     -4.32832003	     68.79218363	      1.02502451	      1.00902285	      0.44525472	     10.05258501	      4.32394104	     -0.04981023	    -18.72564794	      7.53748974	      9.87261550	     20.20838895	     -7.37238500	     -7.15550592	    -65.04167961	      4.76414026	     -9.25185948	     -2.06835316	      2.92760690	     -2.15439217
      2.11000000	      5.98141436	     -4.19809667	     69.29229354	      1.02734002	      1.00932317	      0.43713054	      9.29046560	      4.08962781	     -0.42211243	    -18.45807702	      7.84227632	      9.60492100	     21.20772141	     -7.23624235	     -7.83438419	    -63.88678664	      5.32930046	     -9.03297057	     -2.17789876	      2.66507981	     -1.69664284
      2.12000000	      5.83257099	     -4.08624198	     69.83478418	      1.02944961	      1.00941439	      0.42894293	      8.57082381	      3.82736104	     -0.88646711	    -18.22892446	      8.25691499	      9.44552651	     22.17927285	     -7.05791804	     -8.48451063	    -62.52548443	      5.83496369	     -8.80762266	     -2.26398333	      2.39082255	     -1.31396098
      2.13000000	      5.69725802	     -3.96747510	     70.41473967	      1.03139059	      1.00938431	      0.42066202	      7.83193937	      3.57067822	     -1.40661417	    -17.99787479	      8.70698035	      9.31980871	     23.07102756	     -6.85939733	     -9.08533147	    -60.95212744	      6.30615598	     -8.47276539	     -2.36457355	      2.13164600	     -0.98203391
      2.14000000	      5.59157548	     -3.84883168	     71.02219941	      1.03319935	      1.00921980	      0.41230974	      7.07058857	      3.34589614	     -1.95355985	    -17.75555830	      9.18778053	      9.25668249	     23.88893667	     -6.67908997	     -9.66520004	    -59.19588852	      6.77555871	     -8.07378971	     -2.48091874	      1.90485875	     -0.70573523
      2.15000000	      5.50347454	     -3.75287996	     71.66667599	      1.03484432	      1.00886829	      0.40390249	      6.33487713	      3.14492420	     -2.57643605	    -17.54111228	      9.72199682	      9.21200718	     24.66637767	     -6.50623213	    -10.21416844	    -57.27090895	      7.16250363	     -7.80715456	     -2.58462131	      1.70818318	     -0.48241806
      2.16000000	      5.45867397	     -3.63586591	     72.32114520	      1.03639543	      1.00843849	      0.39541202	      5.54233787	      2.99496417	     -3.16810886	    -17.30221817	     10.25353527	      9.18650173	     25.33101263	     -6.36159523	    -10.74469532	    -55.17290987	      7.52210562	     -7.51256572	     -2.72640297	      1.54804772	     -0.26264282
      2.17000000	      5.45305338	     -3.52729383	     72.97864866	      1.03786060	      1.00786576	      0.38687504	      4.74241786	      2.90230780	     -3.75100606	    -17.06532483	     10.77902641	      9.13054440	     25.92294600	     -6.26452564	    -11.28480185	    -52.92596221	      7.81733959	     -7.28476719	     -2.87518566	      1.43531446	     -0.06966792
      2.18000000	      5.47842070	     -3.41771038	     73.63741788	      1.03924984	      1.00715903	      0.37826099	      3.92607162	      2.85785431	     -4.31505446	    -16.82940994	     11.29488342	      9.01710627	     26.43126455	     -6.20313927	    -11.84057591	    -50.53785434	      8.04209870	     -7.11202051	     -3.02865355	      1.35392981	      0.11732572
      2.19000000	      5.52584351	     -3.29672714	     74.28374234	      1.04058203	      1.00633701	      0.36957119	      3.08121168	      2.85137430	     -4.84180072	    -16.58248682	     11.78723644	      8.82914529	     26.84512787	     -6.17563288	    -12.44626022	    -48.01762369	      8.18429945	     -6.96207208	     -3.19650592	      1.29155326	      0.28962882
      2.20000000	      5.58558974	     -3.18629886	     74.91787837	      1.04184156	      1.00535030	      0.36081366	      2.24846820	      2.87414165	     -5.35804821	    -16.35201526	     12.26913819	      8.57015528	     27.19684274	     -6.16815679	    -13.08712003	    -45.38380236	      8.25248094	     -6.82396406	     -3.35111619	      1.24233417	      0.47718773
      2.21000000	      5.65636828	     -3.07076009	     75.52622741	      1.04305853	      1.00423588	      0.35195763	      1.39866647	      2.92194609	     -5.83168884	    -16.11422404	     12.71863909	      8.24557759	     27.46878175	     -6.19174723	    -13.81823330	    -42.65298049	      8.25337697	     -6.65496997	     -3.50411245	      1.20116600	      0.65660431
      2.22000000	      5.72062064	     -2.96798020	     76.11541154	      1.04419586	      1.00295541	      0.34300793	      0.56941972	      2.97254923	     -6.30323820	    -15.89505231	     13.16411777	      7.90366737	     27.69002911	     -6.21362228	    -14.60919380	    -39.83994155	      8.20467023	     -6.44439003	     -3.63317639	      1.15246136	      0.84453483
      2.23000000	      5.76618581	     -2.89005708	     76.68440295	      1.04522403	      1.00148685	      0.33395213	     -0.21875154	      3.00946726	     -6.77986297	    -15.70640787	     13.63095127	      7.58793505	     27.88127420	     -6.21586437	    -15.45404285	    -36.96603351	      8.14118124	     -6.19618460	     -3.71988486	      1.09060014	      1.04224577
      2.24000000	      5.82799906	     -2.78118742	     77.21813784	      1.04623567	      0.99997055	      0.32478356	     -1.06330393	      3.06606184	     -7.21755969	    -15.48533010	     14.04035185	      7.28429320	     27.98203821	     -6.24308312	    -16.39833582	    -34.06417847	      8.05795632	     -5.84248926	     -3.84042085	      1.02884872	      1.22766971
      2.25000000	      5.85522355	     -2.70414220	     77.72973849	      1.04714061	      0.99828228	      0.31552308	     -1.85090824	      3.08843338	     -7.67943990	    -15.30213828	     14.48292338	      7.06084589	     28.07983500	     -6.22733550	    -17.38333207	    -31.15338858	      7.97826069	     -5.45713057	     -3.91110488	      0.93286239	      1.41685179
      2.26000000	      5.85507369	     -2.65074378	     78.20890819	      1.04795560	      0.99646124	      0.30619107	     -2.59127927	      3.08118053	     -8.15878623	    -15.15599719	     14.93345933	      6.90464826	     28.17092447	     -6.17347380	    -18.39228687	    -28.26128835	      7.90837687	     -5.06264629	     -3.94601062	      0.80507502	      1.62930543
      2.27000000	      5.86450126	     -2.56304324	     78.66715402	      1.04870026	      0.99462639	      0.29676685	     -3.38953477	      3.07985401	     -8.61341076	    -14.97786547	     15.34927019	      6.82760501	     28.20551905	     -6.11848664	    -19.44437969	    -25.44190556	      7.89195594	     -4.58636936	     -4.02021572	      0.67260934	      1.80933838
      2.28000000	      5.85231928	     -2.51002159	     79.10155611	      1.04933987	      0.99267140	      0.28732299	     -4.12243468	      3.05598492	     -9.08093740	    -14.84832334	     15.76886082	      6.81085853	     28.26478500	     -6.02324602	    -20.42760666	    -22.70090486	      7.89350744	     -4.15687724	     -4.05345314	      0.51406345	      2.00675286
      2.29000000	      5.83495015	     -2.47937029	     79.51711288	      1.04989356	      0.99063095	      0.27787133	     -4.80643956	      3.02408518	     -9.56717473	    -14.76837084	     16.18994473	      6.83737855	     28.34583057	     -5.90994809	    -21.29366570	    -20.08241103	      7.89296351	     -3.78552856	     -4.06327117	      0.33814026	      2.21101940
      2.30000000	      5.83521150	     -2.44949459	     79.91009472	      1.05035619	      0.98857989	      0.26839399	     -5.48692312	      3.00720317	    -10.00333596	    -14.70060965	     16.54324507	      6.95641188	     28.41626338	     -5.80056364	    -21.96235925	    -17.60312297	      7.94524559	     -3.43292469	     -4.08227175	      0.17564079	      2.41050771
